<mxfile host="app.diagrams.net" modified="2023-09-11T02:06:56.038Z" agent="Mozilla/5.0 (Windows NT 10.0; Win64; x64) AppleWebKit/537.36 (KHTML, like Gecko) Chrome/116.0.0.0 Safari/537.36" etag="L_Ssgtm6ZVQKb0uj6Mg4" version="21.7.4" type="github">
  <diagram id="R2lEEEUBdFMjLlhIrx00" name="Page-1">
    <mxGraphModel dx="978" dy="1631" grid="1" gridSize="10" guides="1" tooltips="1" connect="1" arrows="1" fold="1" page="1" pageScale="1" pageWidth="850" pageHeight="1100" math="0" shadow="0" extFonts="Permanent Marker^https://fonts.googleapis.com/css?family=Permanent+Marker">
      <root>
        <mxCell id="0" />
        <mxCell id="1" parent="0" />
        <mxCell id="IUQkrYkWNU4oUDDJXFgj-1" value="CLIENTE" style="rounded=0;whiteSpace=wrap;html=1;" vertex="1" parent="1">
          <mxGeometry x="110" y="340" width="120" height="60" as="geometry" />
        </mxCell>
        <mxCell id="IUQkrYkWNU4oUDDJXFgj-2" value="CATEGORIA DE CLIENTE" style="rounded=0;whiteSpace=wrap;html=1;" vertex="1" parent="1">
          <mxGeometry x="460" y="570" width="120" height="60" as="geometry" />
        </mxCell>
        <mxCell id="IUQkrYkWNU4oUDDJXFgj-3" value="PEDIDO" style="rounded=0;whiteSpace=wrap;html=1;" vertex="1" parent="1">
          <mxGeometry x="560" y="360" width="120" height="60" as="geometry" />
        </mxCell>
        <mxCell id="IUQkrYkWNU4oUDDJXFgj-4" value="PRODUCTO" style="rounded=0;whiteSpace=wrap;html=1;" vertex="1" parent="1">
          <mxGeometry x="470" y="10" width="120" height="60" as="geometry" />
        </mxCell>
        <mxCell id="IUQkrYkWNU4oUDDJXFgj-5" value="PROVEEDOR" style="rounded=0;whiteSpace=wrap;html=1;" vertex="1" parent="1">
          <mxGeometry x="110" y="140" width="120" height="60" as="geometry" />
        </mxCell>
        <mxCell id="IUQkrYkWNU4oUDDJXFgj-6" value="&lt;u&gt;ID&lt;/u&gt;" style="ellipse;whiteSpace=wrap;html=1;strokeColor=#000529;" vertex="1" parent="1">
          <mxGeometry x="30" y="120" width="50" height="40" as="geometry" />
        </mxCell>
        <mxCell id="IUQkrYkWNU4oUDDJXFgj-7" value="Nombre" style="ellipse;whiteSpace=wrap;html=1;strokeColor=#000529;" vertex="1" parent="1">
          <mxGeometry x="60" y="70" width="50" height="40" as="geometry" />
        </mxCell>
        <mxCell id="IUQkrYkWNU4oUDDJXFgj-8" value="Direccion" style="ellipse;whiteSpace=wrap;html=1;strokeColor=#000529;" vertex="1" parent="1">
          <mxGeometry x="100" y="30" width="60" height="40" as="geometry" />
        </mxCell>
        <mxCell id="IUQkrYkWNU4oUDDJXFgj-9" value="Telefono" style="ellipse;whiteSpace=wrap;html=1;strokeColor=#000529;" vertex="1" parent="1">
          <mxGeometry x="170" y="30" width="60" height="40" as="geometry" />
        </mxCell>
        <mxCell id="IUQkrYkWNU4oUDDJXFgj-10" value="Pagina web" style="ellipse;whiteSpace=wrap;html=1;strokeColor=#000529;" vertex="1" parent="1">
          <mxGeometry x="230" y="50" width="70" height="40" as="geometry" />
        </mxCell>
        <mxCell id="IUQkrYkWNU4oUDDJXFgj-12" value="Correo electronico" style="ellipse;whiteSpace=wrap;html=1;strokeColor=#000529;" vertex="1" parent="1">
          <mxGeometry x="260" y="100" width="70" height="50" as="geometry" />
        </mxCell>
        <mxCell id="IUQkrYkWNU4oUDDJXFgj-39" value="&lt;u&gt;ID&lt;/u&gt;" style="ellipse;whiteSpace=wrap;html=1;strokeColor=#000529;" vertex="1" parent="1">
          <mxGeometry x="30" y="350" width="50" height="40" as="geometry" />
        </mxCell>
        <mxCell id="IUQkrYkWNU4oUDDJXFgj-40" value="Nombre" style="ellipse;whiteSpace=wrap;html=1;strokeColor=#000529;" vertex="1" parent="1">
          <mxGeometry x="30" y="410" width="50" height="40" as="geometry" />
        </mxCell>
        <mxCell id="IUQkrYkWNU4oUDDJXFgj-42" value="Direcciones" style="ellipse;whiteSpace=wrap;html=1;strokeColor=#000529;shadow=0;" vertex="1" parent="1">
          <mxGeometry x="80" y="450" width="70" height="40" as="geometry" />
        </mxCell>
        <mxCell id="IUQkrYkWNU4oUDDJXFgj-45" value="Telefono" style="ellipse;whiteSpace=wrap;html=1;strokeColor=#000529;" vertex="1" parent="1">
          <mxGeometry x="160" y="459" width="60" height="40" as="geometry" />
        </mxCell>
        <mxCell id="IUQkrYkWNU4oUDDJXFgj-46" value="DUI" style="ellipse;whiteSpace=wrap;html=1;strokeColor=#000529;" vertex="1" parent="1">
          <mxGeometry x="230" y="440" width="50" height="40" as="geometry" />
        </mxCell>
        <mxCell id="IUQkrYkWNU4oUDDJXFgj-47" value="Correo electronico" style="ellipse;whiteSpace=wrap;html=1;strokeColor=#000529;" vertex="1" parent="1">
          <mxGeometry x="280" y="400" width="70" height="47" as="geometry" />
        </mxCell>
        <mxCell id="IUQkrYkWNU4oUDDJXFgj-63" value="Categoria" style="ellipse;whiteSpace=wrap;html=1;strokeColor=#000529;" vertex="1" parent="1">
          <mxGeometry x="280" y="280" width="70" height="47" as="geometry" />
        </mxCell>
        <mxCell id="IUQkrYkWNU4oUDDJXFgj-65" value="&lt;u&gt;ID&lt;/u&gt;" style="ellipse;whiteSpace=wrap;html=1;strokeColor=#000529;" vertex="1" parent="1">
          <mxGeometry x="380" y="520" width="50" height="40" as="geometry" />
        </mxCell>
        <mxCell id="IUQkrYkWNU4oUDDJXFgj-66" value="Primera vez" style="ellipse;whiteSpace=wrap;html=1;strokeColor=#000529;" vertex="1" parent="1">
          <mxGeometry x="400" y="665" width="70" height="50" as="geometry" />
        </mxCell>
        <mxCell id="IUQkrYkWNU4oUDDJXFgj-67" value="Frecuente" style="ellipse;whiteSpace=wrap;html=1;strokeColor=#000529;" vertex="1" parent="1">
          <mxGeometry x="520" y="670" width="70" height="50" as="geometry" />
        </mxCell>
        <mxCell id="IUQkrYkWNU4oUDDJXFgj-68" value="Fiel" style="ellipse;whiteSpace=wrap;html=1;strokeColor=#000529;" vertex="1" parent="1">
          <mxGeometry x="630" y="630" width="50" height="40" as="geometry" />
        </mxCell>
        <mxCell id="IUQkrYkWNU4oUDDJXFgj-70" value="" style="endArrow=classic;html=1;rounded=0;" edge="1" parent="1" source="IUQkrYkWNU4oUDDJXFgj-2" target="IUQkrYkWNU4oUDDJXFgj-65">
          <mxGeometry width="50" height="50" relative="1" as="geometry">
            <mxPoint x="350" y="640" as="sourcePoint" />
            <mxPoint x="400" y="590" as="targetPoint" />
          </mxGeometry>
        </mxCell>
        <mxCell id="IUQkrYkWNU4oUDDJXFgj-71" value="" style="endArrow=classic;html=1;rounded=0;" edge="1" parent="1" source="IUQkrYkWNU4oUDDJXFgj-2" target="IUQkrYkWNU4oUDDJXFgj-66">
          <mxGeometry width="50" height="50" relative="1" as="geometry">
            <mxPoint x="470" y="610" as="sourcePoint" />
            <mxPoint x="425" y="680" as="targetPoint" />
          </mxGeometry>
        </mxCell>
        <mxCell id="IUQkrYkWNU4oUDDJXFgj-72" value="" style="endArrow=classic;html=1;rounded=0;" edge="1" parent="1" source="IUQkrYkWNU4oUDDJXFgj-1" target="IUQkrYkWNU4oUDDJXFgj-63">
          <mxGeometry width="50" height="50" relative="1" as="geometry">
            <mxPoint x="480" y="390" as="sourcePoint" />
            <mxPoint x="370" y="440" as="targetPoint" />
          </mxGeometry>
        </mxCell>
        <mxCell id="IUQkrYkWNU4oUDDJXFgj-73" value="" style="endArrow=classic;html=1;rounded=0;" edge="1" parent="1" source="IUQkrYkWNU4oUDDJXFgj-1" target="IUQkrYkWNU4oUDDJXFgj-47">
          <mxGeometry width="50" height="50" relative="1" as="geometry">
            <mxPoint x="239" y="372" as="sourcePoint" />
            <mxPoint x="290" y="363" as="targetPoint" />
          </mxGeometry>
        </mxCell>
        <mxCell id="IUQkrYkWNU4oUDDJXFgj-74" value="" style="endArrow=classic;html=1;rounded=0;" edge="1" parent="1" source="IUQkrYkWNU4oUDDJXFgj-1" target="IUQkrYkWNU4oUDDJXFgj-46">
          <mxGeometry width="50" height="50" relative="1" as="geometry">
            <mxPoint x="249" y="382" as="sourcePoint" />
            <mxPoint x="300" y="373" as="targetPoint" />
          </mxGeometry>
        </mxCell>
        <mxCell id="IUQkrYkWNU4oUDDJXFgj-75" value="" style="endArrow=classic;html=1;rounded=0;" edge="1" parent="1" source="IUQkrYkWNU4oUDDJXFgj-1" target="IUQkrYkWNU4oUDDJXFgj-45">
          <mxGeometry width="50" height="50" relative="1" as="geometry">
            <mxPoint x="259" y="392" as="sourcePoint" />
            <mxPoint x="310" y="383" as="targetPoint" />
          </mxGeometry>
        </mxCell>
        <mxCell id="IUQkrYkWNU4oUDDJXFgj-76" value="" style="endArrow=classic;html=1;rounded=0;" edge="1" parent="1" source="IUQkrYkWNU4oUDDJXFgj-1" target="IUQkrYkWNU4oUDDJXFgj-42">
          <mxGeometry width="50" height="50" relative="1" as="geometry">
            <mxPoint x="269" y="402" as="sourcePoint" />
            <mxPoint x="320" y="393" as="targetPoint" />
          </mxGeometry>
        </mxCell>
        <mxCell id="IUQkrYkWNU4oUDDJXFgj-77" value="" style="endArrow=classic;html=1;rounded=0;" edge="1" parent="1" source="IUQkrYkWNU4oUDDJXFgj-1" target="IUQkrYkWNU4oUDDJXFgj-40">
          <mxGeometry width="50" height="50" relative="1" as="geometry">
            <mxPoint x="150" y="410" as="sourcePoint" />
            <mxPoint x="135" y="469" as="targetPoint" />
          </mxGeometry>
        </mxCell>
        <mxCell id="IUQkrYkWNU4oUDDJXFgj-78" value="" style="endArrow=classic;html=1;rounded=0;" edge="1" parent="1" source="IUQkrYkWNU4oUDDJXFgj-1" target="IUQkrYkWNU4oUDDJXFgj-39">
          <mxGeometry width="50" height="50" relative="1" as="geometry">
            <mxPoint x="160" y="420" as="sourcePoint" />
            <mxPoint x="90" y="330" as="targetPoint" />
          </mxGeometry>
        </mxCell>
        <mxCell id="IUQkrYkWNU4oUDDJXFgj-79" value="" style="endArrow=classic;html=1;rounded=0;" edge="1" parent="1" source="IUQkrYkWNU4oUDDJXFgj-2" target="IUQkrYkWNU4oUDDJXFgj-67">
          <mxGeometry width="50" height="50" relative="1" as="geometry">
            <mxPoint x="160" y="650" as="sourcePoint" />
            <mxPoint x="145" y="709" as="targetPoint" />
          </mxGeometry>
        </mxCell>
        <mxCell id="IUQkrYkWNU4oUDDJXFgj-80" value="" style="endArrow=classic;html=1;rounded=0;" edge="1" parent="1" source="IUQkrYkWNU4oUDDJXFgj-2" target="IUQkrYkWNU4oUDDJXFgj-68">
          <mxGeometry width="50" height="50" relative="1" as="geometry">
            <mxPoint x="530" y="640" as="sourcePoint" />
            <mxPoint x="555" y="670" as="targetPoint" />
          </mxGeometry>
        </mxCell>
        <mxCell id="IUQkrYkWNU4oUDDJXFgj-82" value="CATEGORIA DE PRODUCTO" style="rounded=0;whiteSpace=wrap;html=1;direction=east;" vertex="1" parent="1">
          <mxGeometry x="100" y="-130" width="120" height="60" as="geometry" />
        </mxCell>
        <mxCell id="IUQkrYkWNU4oUDDJXFgj-83" value="&lt;u&gt;ID&lt;/u&gt;" style="ellipse;whiteSpace=wrap;html=1;strokeColor=#000529;direction=east;" vertex="1" parent="1">
          <mxGeometry x="20" y="-180" width="50" height="40" as="geometry" />
        </mxCell>
        <mxCell id="IUQkrYkWNU4oUDDJXFgj-84" value="Nombre" style="ellipse;whiteSpace=wrap;html=1;strokeColor=#000529;direction=east;" vertex="1" parent="1">
          <mxGeometry x="70" y="-240" width="70" height="50" as="geometry" />
        </mxCell>
        <mxCell id="IUQkrYkWNU4oUDDJXFgj-85" value="Descripcion" style="ellipse;whiteSpace=wrap;html=1;strokeColor=#000529;direction=east;" vertex="1" parent="1">
          <mxGeometry x="200" y="-240" width="70" height="50" as="geometry" />
        </mxCell>
        <mxCell id="IUQkrYkWNU4oUDDJXFgj-87" value="" style="endArrow=classic;html=1;rounded=0;" edge="1" parent="1" source="IUQkrYkWNU4oUDDJXFgj-82" target="IUQkrYkWNU4oUDDJXFgj-83">
          <mxGeometry width="50" height="50" relative="1" as="geometry">
            <mxPoint x="-10" y="-60" as="sourcePoint" />
            <mxPoint x="40" y="-110" as="targetPoint" />
          </mxGeometry>
        </mxCell>
        <mxCell id="IUQkrYkWNU4oUDDJXFgj-88" value="" style="endArrow=classic;html=1;rounded=0;" edge="1" parent="1" source="IUQkrYkWNU4oUDDJXFgj-82" target="IUQkrYkWNU4oUDDJXFgj-84">
          <mxGeometry width="50" height="50" relative="1" as="geometry">
            <mxPoint x="110" y="-90" as="sourcePoint" />
            <mxPoint x="65" y="-20" as="targetPoint" />
          </mxGeometry>
        </mxCell>
        <mxCell id="IUQkrYkWNU4oUDDJXFgj-89" value="" style="endArrow=classic;html=1;rounded=0;" edge="1" parent="1" source="IUQkrYkWNU4oUDDJXFgj-82" target="IUQkrYkWNU4oUDDJXFgj-85">
          <mxGeometry width="50" height="50" relative="1" as="geometry">
            <mxPoint x="170" y="-120" as="sourcePoint" />
            <mxPoint x="-215" y="9" as="targetPoint" />
          </mxGeometry>
        </mxCell>
        <mxCell id="IUQkrYkWNU4oUDDJXFgj-91" value="&lt;u&gt;ID&lt;/u&gt;" style="ellipse;whiteSpace=wrap;html=1;strokeColor=#000529;direction=east;" vertex="1" parent="1">
          <mxGeometry x="350" y="20" width="50" height="40" as="geometry" />
        </mxCell>
        <mxCell id="IUQkrYkWNU4oUDDJXFgj-92" value="" style="endArrow=classic;html=1;rounded=0;entryX=1;entryY=0.75;entryDx=0;entryDy=0;entryPerimeter=0;" edge="1" parent="1" source="IUQkrYkWNU4oUDDJXFgj-5" target="IUQkrYkWNU4oUDDJXFgj-6">
          <mxGeometry width="50" height="50" relative="1" as="geometry">
            <mxPoint x="110" y="-90" as="sourcePoint" />
            <mxPoint x="55" y="-130" as="targetPoint" />
          </mxGeometry>
        </mxCell>
        <mxCell id="IUQkrYkWNU4oUDDJXFgj-93" value="" style="endArrow=classic;html=1;rounded=0;exitX=0.14;exitY=0.004;exitDx=0;exitDy=0;entryX=0.669;entryY=0.97;entryDx=0;entryDy=0;entryPerimeter=0;exitPerimeter=0;" edge="1" parent="1" source="IUQkrYkWNU4oUDDJXFgj-5" target="IUQkrYkWNU4oUDDJXFgj-7">
          <mxGeometry width="50" height="50" relative="1" as="geometry">
            <mxPoint x="120" y="180" as="sourcePoint" />
            <mxPoint x="90" y="160" as="targetPoint" />
          </mxGeometry>
        </mxCell>
        <mxCell id="IUQkrYkWNU4oUDDJXFgj-94" value="" style="endArrow=classic;html=1;rounded=0;entryX=0.7;entryY=1.042;entryDx=0;entryDy=0;entryPerimeter=0;" edge="1" parent="1" source="IUQkrYkWNU4oUDDJXFgj-5" target="IUQkrYkWNU4oUDDJXFgj-8">
          <mxGeometry width="50" height="50" relative="1" as="geometry">
            <mxPoint x="130" y="190" as="sourcePoint" />
            <mxPoint x="100" y="170" as="targetPoint" />
          </mxGeometry>
        </mxCell>
        <mxCell id="IUQkrYkWNU4oUDDJXFgj-95" value="" style="endArrow=classic;html=1;rounded=0;entryX=0.5;entryY=1;entryDx=0;entryDy=0;" edge="1" parent="1" source="IUQkrYkWNU4oUDDJXFgj-5" target="IUQkrYkWNU4oUDDJXFgj-9">
          <mxGeometry width="50" height="50" relative="1" as="geometry">
            <mxPoint x="168" y="148" as="sourcePoint" />
            <mxPoint x="152" y="82" as="targetPoint" />
          </mxGeometry>
        </mxCell>
        <mxCell id="IUQkrYkWNU4oUDDJXFgj-96" value="" style="endArrow=classic;html=1;rounded=0;entryX=0.253;entryY=0.923;entryDx=0;entryDy=0;entryPerimeter=0;" edge="1" parent="1" source="IUQkrYkWNU4oUDDJXFgj-5" target="IUQkrYkWNU4oUDDJXFgj-10">
          <mxGeometry width="50" height="50" relative="1" as="geometry">
            <mxPoint x="178" y="158" as="sourcePoint" />
            <mxPoint x="162" y="92" as="targetPoint" />
          </mxGeometry>
        </mxCell>
        <mxCell id="IUQkrYkWNU4oUDDJXFgj-97" value="" style="endArrow=classic;html=1;rounded=0;" edge="1" parent="1" source="IUQkrYkWNU4oUDDJXFgj-5" target="IUQkrYkWNU4oUDDJXFgj-12">
          <mxGeometry width="50" height="50" relative="1" as="geometry">
            <mxPoint x="208" y="150" as="sourcePoint" />
            <mxPoint x="258" y="97" as="targetPoint" />
          </mxGeometry>
        </mxCell>
        <mxCell id="IUQkrYkWNU4oUDDJXFgj-98" value="Proveedor" style="ellipse;whiteSpace=wrap;html=1;strokeColor=#000529;" vertex="1" parent="1">
          <mxGeometry x="360" y="-90" width="70" height="40" as="geometry" />
        </mxCell>
        <mxCell id="IUQkrYkWNU4oUDDJXFgj-99" value="Stock" style="ellipse;whiteSpace=wrap;html=1;strokeColor=#000529;" vertex="1" parent="1">
          <mxGeometry x="410" y="-140" width="60" height="40" as="geometry" />
        </mxCell>
        <mxCell id="IUQkrYkWNU4oUDDJXFgj-100" value="Descripcion" style="ellipse;whiteSpace=wrap;html=1;strokeColor=#000529;" vertex="1" parent="1">
          <mxGeometry x="480" y="-160" width="70" height="40" as="geometry" />
        </mxCell>
        <mxCell id="IUQkrYkWNU4oUDDJXFgj-101" value="Costo" style="ellipse;whiteSpace=wrap;html=1;strokeColor=#000529;" vertex="1" parent="1">
          <mxGeometry x="560" y="-160" width="60" height="40" as="geometry" />
        </mxCell>
        <mxCell id="IUQkrYkWNU4oUDDJXFgj-102" value="Precio" style="ellipse;whiteSpace=wrap;html=1;strokeColor=#000529;" vertex="1" parent="1">
          <mxGeometry x="620" y="-130" width="60" height="40" as="geometry" />
        </mxCell>
        <mxCell id="IUQkrYkWNU4oUDDJXFgj-103" value="Presentacion" style="ellipse;whiteSpace=wrap;html=1;strokeColor=#000529;" vertex="1" parent="1">
          <mxGeometry x="650" y="-80" width="80" height="40" as="geometry" />
        </mxCell>
        <mxCell id="IUQkrYkWNU4oUDDJXFgj-104" value="Lote" style="ellipse;whiteSpace=wrap;html=1;strokeColor=#000529;" vertex="1" parent="1">
          <mxGeometry x="660" y="-30" width="60" height="40" as="geometry" />
        </mxCell>
        <mxCell id="IUQkrYkWNU4oUDDJXFgj-105" value="Vencimiento" style="ellipse;whiteSpace=wrap;html=1;strokeColor=#000529;" vertex="1" parent="1">
          <mxGeometry x="660" y="30" width="70" height="40" as="geometry" />
        </mxCell>
        <mxCell id="IUQkrYkWNU4oUDDJXFgj-106" value="Categoria" style="ellipse;whiteSpace=wrap;html=1;strokeColor=#000529;" vertex="1" parent="1">
          <mxGeometry x="350" y="-40" width="60" height="40" as="geometry" />
        </mxCell>
        <mxCell id="IUQkrYkWNU4oUDDJXFgj-107" value="" style="endArrow=classic;html=1;rounded=0;" edge="1" parent="1" source="IUQkrYkWNU4oUDDJXFgj-4" target="IUQkrYkWNU4oUDDJXFgj-91">
          <mxGeometry width="50" height="50" relative="1" as="geometry">
            <mxPoint x="185" y="-119" as="sourcePoint" />
            <mxPoint x="235" y="-178" as="targetPoint" />
          </mxGeometry>
        </mxCell>
        <mxCell id="IUQkrYkWNU4oUDDJXFgj-108" value="" style="endArrow=classic;html=1;rounded=0;" edge="1" parent="1" source="IUQkrYkWNU4oUDDJXFgj-4" target="IUQkrYkWNU4oUDDJXFgj-106">
          <mxGeometry width="50" height="50" relative="1" as="geometry">
            <mxPoint x="480" y="50" as="sourcePoint" />
            <mxPoint x="410" y="50" as="targetPoint" />
          </mxGeometry>
        </mxCell>
        <mxCell id="IUQkrYkWNU4oUDDJXFgj-109" value="" style="endArrow=classic;html=1;rounded=0;" edge="1" parent="1" source="IUQkrYkWNU4oUDDJXFgj-4" target="IUQkrYkWNU4oUDDJXFgj-98">
          <mxGeometry width="50" height="50" relative="1" as="geometry">
            <mxPoint x="490" y="60" as="sourcePoint" />
            <mxPoint x="420" y="60" as="targetPoint" />
          </mxGeometry>
        </mxCell>
        <mxCell id="IUQkrYkWNU4oUDDJXFgj-110" value="" style="endArrow=classic;html=1;rounded=0;" edge="1" parent="1" source="IUQkrYkWNU4oUDDJXFgj-4" target="IUQkrYkWNU4oUDDJXFgj-99">
          <mxGeometry width="50" height="50" relative="1" as="geometry">
            <mxPoint x="503" y="20" as="sourcePoint" />
            <mxPoint x="425" y="-44" as="targetPoint" />
          </mxGeometry>
        </mxCell>
        <mxCell id="IUQkrYkWNU4oUDDJXFgj-111" value="" style="endArrow=classic;html=1;rounded=0;" edge="1" parent="1" source="IUQkrYkWNU4oUDDJXFgj-4" target="IUQkrYkWNU4oUDDJXFgj-100">
          <mxGeometry width="50" height="50" relative="1" as="geometry">
            <mxPoint x="513" y="30" as="sourcePoint" />
            <mxPoint x="435" y="-34" as="targetPoint" />
          </mxGeometry>
        </mxCell>
        <mxCell id="IUQkrYkWNU4oUDDJXFgj-112" value="" style="endArrow=classic;html=1;rounded=0;" edge="1" parent="1" source="IUQkrYkWNU4oUDDJXFgj-4" target="IUQkrYkWNU4oUDDJXFgj-101">
          <mxGeometry width="50" height="50" relative="1" as="geometry">
            <mxPoint x="540" y="20" as="sourcePoint" />
            <mxPoint x="527" y="-110" as="targetPoint" />
          </mxGeometry>
        </mxCell>
        <mxCell id="IUQkrYkWNU4oUDDJXFgj-113" value="" style="endArrow=classic;html=1;rounded=0;" edge="1" parent="1" source="IUQkrYkWNU4oUDDJXFgj-4" target="IUQkrYkWNU4oUDDJXFgj-102">
          <mxGeometry width="50" height="50" relative="1" as="geometry">
            <mxPoint x="550" y="20" as="sourcePoint" />
            <mxPoint x="593" y="-110" as="targetPoint" />
          </mxGeometry>
        </mxCell>
        <mxCell id="IUQkrYkWNU4oUDDJXFgj-114" value="" style="endArrow=classic;html=1;rounded=0;" edge="1" parent="1" source="IUQkrYkWNU4oUDDJXFgj-4" target="IUQkrYkWNU4oUDDJXFgj-103">
          <mxGeometry width="50" height="50" relative="1" as="geometry">
            <mxPoint x="560" y="30" as="sourcePoint" />
            <mxPoint x="603" y="-100" as="targetPoint" />
          </mxGeometry>
        </mxCell>
        <mxCell id="IUQkrYkWNU4oUDDJXFgj-115" value="" style="endArrow=classic;html=1;rounded=0;" edge="1" parent="1" source="IUQkrYkWNU4oUDDJXFgj-4" target="IUQkrYkWNU4oUDDJXFgj-104">
          <mxGeometry width="50" height="50" relative="1" as="geometry">
            <mxPoint x="570" y="40" as="sourcePoint" />
            <mxPoint x="613" y="-90" as="targetPoint" />
          </mxGeometry>
        </mxCell>
        <mxCell id="IUQkrYkWNU4oUDDJXFgj-116" value="" style="endArrow=classic;html=1;rounded=0;" edge="1" parent="1" source="IUQkrYkWNU4oUDDJXFgj-4" target="IUQkrYkWNU4oUDDJXFgj-105">
          <mxGeometry width="50" height="50" relative="1" as="geometry">
            <mxPoint x="580" y="50" as="sourcePoint" />
            <mxPoint x="623" y="-80" as="targetPoint" />
          </mxGeometry>
        </mxCell>
        <mxCell id="IUQkrYkWNU4oUDDJXFgj-117" value="&lt;u&gt;ID&lt;/u&gt;" style="ellipse;whiteSpace=wrap;html=1;strokeColor=#000529;direction=east;" vertex="1" parent="1">
          <mxGeometry x="822.5" y="170" width="50" height="40" as="geometry" />
        </mxCell>
        <mxCell id="IUQkrYkWNU4oUDDJXFgj-119" value="codigo de cliente" style="ellipse;whiteSpace=wrap;html=1;strokeColor=#000529;" vertex="1" parent="1">
          <mxGeometry x="815" y="220" width="65" height="40" as="geometry" />
        </mxCell>
        <mxCell id="IUQkrYkWNU4oUDDJXFgj-120" value="Direccion&amp;nbsp;de&lt;br&gt;envio" style="ellipse;whiteSpace=wrap;html=1;strokeColor=#000529;" vertex="1" parent="1">
          <mxGeometry x="806.87" y="272" width="81.25" height="50" as="geometry" />
        </mxCell>
        <mxCell id="IUQkrYkWNU4oUDDJXFgj-121" value="Total" style="ellipse;whiteSpace=wrap;html=1;strokeColor=#000529;" vertex="1" parent="1">
          <mxGeometry x="817.5" y="550" width="60" height="40" as="geometry" />
        </mxCell>
        <mxCell id="IUQkrYkWNU4oUDDJXFgj-122" value="Fecha del pedido" style="ellipse;whiteSpace=wrap;html=1;strokeColor=#000529;" vertex="1" parent="1">
          <mxGeometry x="811.25" y="390" width="72.5" height="43" as="geometry" />
        </mxCell>
        <mxCell id="IUQkrYkWNU4oUDDJXFgj-123" value="Numero de caja" style="ellipse;whiteSpace=wrap;html=1;strokeColor=#000529;" vertex="1" parent="1">
          <mxGeometry x="808.12" y="335" width="78.75" height="43" as="geometry" />
        </mxCell>
        <mxCell id="IUQkrYkWNU4oUDDJXFgj-124" value="Impuestos" style="ellipse;whiteSpace=wrap;html=1;strokeColor=#000529;" vertex="1" parent="1">
          <mxGeometry x="811.24" y="447" width="72.5" height="43" as="geometry" />
        </mxCell>
        <mxCell id="IUQkrYkWNU4oUDDJXFgj-125" value="Sub-total" style="ellipse;whiteSpace=wrap;html=1;strokeColor=#000529;" vertex="1" parent="1">
          <mxGeometry x="811.24" y="499" width="72.5" height="43" as="geometry" />
        </mxCell>
        <mxCell id="IUQkrYkWNU4oUDDJXFgj-126" value="" style="endArrow=classic;html=1;rounded=0;" edge="1" parent="1" source="IUQkrYkWNU4oUDDJXFgj-3" target="IUQkrYkWNU4oUDDJXFgj-117">
          <mxGeometry width="50" height="50" relative="1" as="geometry">
            <mxPoint x="240" y="352" as="sourcePoint" />
            <mxPoint x="296" y="327" as="targetPoint" />
          </mxGeometry>
        </mxCell>
        <mxCell id="IUQkrYkWNU4oUDDJXFgj-127" value="" style="endArrow=classic;html=1;rounded=0;" edge="1" parent="1" source="IUQkrYkWNU4oUDDJXFgj-3" target="IUQkrYkWNU4oUDDJXFgj-119">
          <mxGeometry width="50" height="50" relative="1" as="geometry">
            <mxPoint x="664" y="370" as="sourcePoint" />
            <mxPoint x="841" y="215" as="targetPoint" />
          </mxGeometry>
        </mxCell>
        <mxCell id="IUQkrYkWNU4oUDDJXFgj-128" value="" style="endArrow=classic;html=1;rounded=0;" edge="1" parent="1" source="IUQkrYkWNU4oUDDJXFgj-3" target="IUQkrYkWNU4oUDDJXFgj-120">
          <mxGeometry width="50" height="50" relative="1" as="geometry">
            <mxPoint x="676" y="370" as="sourcePoint" />
            <mxPoint x="835" y="265" as="targetPoint" />
          </mxGeometry>
        </mxCell>
        <mxCell id="IUQkrYkWNU4oUDDJXFgj-129" value="" style="endArrow=classic;html=1;rounded=0;" edge="1" parent="1" source="IUQkrYkWNU4oUDDJXFgj-3" target="IUQkrYkWNU4oUDDJXFgj-123">
          <mxGeometry width="50" height="50" relative="1" as="geometry">
            <mxPoint x="690" y="375" as="sourcePoint" />
            <mxPoint x="824" y="321" as="targetPoint" />
          </mxGeometry>
        </mxCell>
        <mxCell id="IUQkrYkWNU4oUDDJXFgj-130" value="" style="endArrow=classic;html=1;rounded=0;" edge="1" parent="1" source="IUQkrYkWNU4oUDDJXFgj-3" target="IUQkrYkWNU4oUDDJXFgj-122">
          <mxGeometry width="50" height="50" relative="1" as="geometry">
            <mxPoint x="700" y="385" as="sourcePoint" />
            <mxPoint x="834" y="331" as="targetPoint" />
          </mxGeometry>
        </mxCell>
        <mxCell id="IUQkrYkWNU4oUDDJXFgj-131" value="" style="endArrow=classic;html=1;rounded=0;" edge="1" parent="1" source="IUQkrYkWNU4oUDDJXFgj-3" target="IUQkrYkWNU4oUDDJXFgj-124">
          <mxGeometry width="50" height="50" relative="1" as="geometry">
            <mxPoint x="690" y="406" as="sourcePoint" />
            <mxPoint x="822" y="418" as="targetPoint" />
          </mxGeometry>
        </mxCell>
        <mxCell id="IUQkrYkWNU4oUDDJXFgj-132" value="" style="endArrow=classic;html=1;rounded=0;" edge="1" parent="1" source="IUQkrYkWNU4oUDDJXFgj-3" target="IUQkrYkWNU4oUDDJXFgj-125">
          <mxGeometry width="50" height="50" relative="1" as="geometry">
            <mxPoint x="690" y="421" as="sourcePoint" />
            <mxPoint x="826" y="468" as="targetPoint" />
          </mxGeometry>
        </mxCell>
        <mxCell id="IUQkrYkWNU4oUDDJXFgj-133" value="" style="endArrow=classic;html=1;rounded=0;" edge="1" parent="1" source="IUQkrYkWNU4oUDDJXFgj-3" target="IUQkrYkWNU4oUDDJXFgj-121">
          <mxGeometry width="50" height="50" relative="1" as="geometry">
            <mxPoint x="700" y="431" as="sourcePoint" />
            <mxPoint x="836" y="478" as="targetPoint" />
          </mxGeometry>
        </mxCell>
      </root>
    </mxGraphModel>
  </diagram>
</mxfile>
